<svg width="80" height="19" viewBox="0 0 80 19" fill="none" xmlns="http://www.w3.org/2000/svg">
<path d="M16.236 9.3V16.32C15.356 16.968 14.416 17.444 13.416 17.748C12.424 18.044 11.36 18.192 10.224 18.192C8.808 18.192 7.524 17.972 6.372 17.532C5.228 17.092 4.248 16.48 3.432 15.696C2.624 14.912 2 13.976 1.56 12.888C1.12 11.8 0.9 10.612 0.9 9.324C0.9 8.02 1.112 6.824 1.536 5.736C1.96 4.648 2.56 3.712 3.336 2.928C4.12 2.144 5.068 1.536 6.18 1.104C7.292 0.671999 8.54 0.456 9.924 0.456C10.628 0.456 11.284 0.512 11.892 0.623999C12.508 0.736 13.076 0.892 13.596 1.092C14.124 1.284 14.604 1.52 15.036 1.8C15.468 2.08 15.864 2.388 16.224 2.724L15.3 4.188C15.156 4.42 14.968 4.564 14.736 4.62C14.504 4.668 14.252 4.608 13.98 4.44C13.716 4.288 13.452 4.136 13.188 3.984C12.924 3.832 12.628 3.7 12.3 3.588C11.98 3.476 11.616 3.384 11.208 3.312C10.808 3.24 10.344 3.204 9.816 3.204C8.96 3.204 8.184 3.348 7.488 3.636C6.8 3.924 6.212 4.336 5.724 4.872C5.236 5.408 4.86 6.052 4.596 6.804C4.332 7.556 4.2 8.396 4.2 9.324C4.2 10.316 4.34 11.204 4.62 11.988C4.908 12.764 5.308 13.424 5.82 13.968C6.34 14.504 6.964 14.916 7.692 15.204C8.42 15.484 9.232 15.624 10.128 15.624C10.768 15.624 11.34 15.556 11.844 15.42C12.348 15.284 12.84 15.1 13.32 14.868V11.724H11.136C10.928 11.724 10.764 11.668 10.644 11.556C10.532 11.436 10.476 11.292 10.476 11.124V9.3H16.236ZM22.1032 5.688V18H19.1272V5.688H22.1032ZM22.5112 2.1C22.5112 2.356 22.4592 2.596 22.3552 2.82C22.2512 3.044 22.1112 3.24 21.9352 3.408C21.7672 3.576 21.5672 3.712 21.3352 3.816C21.1032 3.912 20.8552 3.96 20.5912 3.96C20.3352 3.96 20.0912 3.912 19.8592 3.816C19.6352 3.712 19.4392 3.576 19.2712 3.408C19.1032 3.24 18.9672 3.044 18.8632 2.82C18.7672 2.596 18.7192 2.356 18.7192 2.1C18.7192 1.836 18.7672 1.588 18.8632 1.356C18.9672 1.124 19.1032 0.924 19.2712 0.756C19.4392 0.587999 19.6352 0.455999 19.8592 0.36C20.0912 0.256 20.3352 0.204 20.5912 0.204C20.8552 0.204 21.1032 0.256 21.3352 0.36C21.5672 0.455999 21.7672 0.587999 21.9352 0.756C22.1112 0.924 22.2512 1.124 22.3552 1.356C22.4592 1.588 22.5112 1.836 22.5112 2.1ZM29.4289 18.192C28.3569 18.192 27.5329 17.892 26.9569 17.292C26.3889 16.684 26.1049 15.848 26.1049 14.784V7.908H24.8449C24.6849 7.908 24.5489 7.856 24.4369 7.752C24.3249 7.648 24.2689 7.492 24.2689 7.284V6.108L26.2489 5.784L26.8729 2.424C26.9129 2.264 26.9889 2.14 27.1009 2.052C27.2129 1.964 27.3569 1.92 27.5329 1.92H29.0689V5.796H32.3569V7.908H29.0689V14.58C29.0689 14.964 29.1609 15.264 29.3449 15.48C29.5369 15.696 29.7969 15.804 30.1249 15.804C30.3089 15.804 30.4609 15.784 30.5809 15.744C30.7089 15.696 30.8169 15.648 30.9049 15.6C31.0009 15.552 31.0849 15.508 31.1569 15.468C31.2289 15.42 31.3009 15.396 31.3729 15.396C31.4609 15.396 31.5329 15.42 31.5889 15.468C31.6449 15.508 31.7049 15.572 31.7689 15.66L32.6569 17.1C32.2249 17.46 31.7289 17.732 31.1689 17.916C30.6089 18.1 30.0289 18.192 29.4289 18.192ZM44.9333 3.3H39.7013V18H36.4733V3.3H31.2413V0.647999H44.9333V3.3ZM51.9851 10.428C51.9851 10.044 51.9291 9.684 51.8171 9.348C51.7131 9.004 51.5531 8.704 51.3371 8.448C51.1211 8.192 50.8451 7.992 50.5091 7.848C50.1811 7.696 49.7971 7.62 49.3571 7.62C48.5011 7.62 47.8251 7.864 47.3291 8.352C46.8411 8.84 46.5291 9.532 46.3931 10.428H51.9851ZM46.3331 12.216C46.3811 12.848 46.4931 13.396 46.6691 13.86C46.8451 14.316 47.0771 14.696 47.3651 15C47.6531 15.296 47.9931 15.52 48.3851 15.672C48.7851 15.816 49.2251 15.888 49.7051 15.888C50.1851 15.888 50.5971 15.832 50.9411 15.72C51.2931 15.608 51.5971 15.484 51.8531 15.348C52.1171 15.212 52.3451 15.088 52.5371 14.976C52.7371 14.864 52.9291 14.808 53.1131 14.808C53.3611 14.808 53.5451 14.9 53.6651 15.084L54.5171 16.164C54.1891 16.548 53.8211 16.872 53.4131 17.136C53.0051 17.392 52.5771 17.6 52.1291 17.76C51.6891 17.912 51.2371 18.02 50.7731 18.084C50.3171 18.148 49.8731 18.18 49.4411 18.18C48.5851 18.18 47.7891 18.04 47.0531 17.76C46.3171 17.472 45.6771 17.052 45.1331 16.5C44.5891 15.94 44.1611 15.252 43.8491 14.436C43.5371 13.612 43.3811 12.66 43.3811 11.58C43.3811 10.74 43.5171 9.952 43.7891 9.216C44.0611 8.472 44.4491 7.828 44.9531 7.284C45.4651 6.732 46.0851 6.296 46.8131 5.976C47.5491 5.656 48.3771 5.496 49.2971 5.496C50.0731 5.496 50.7891 5.62 51.4451 5.868C52.1011 6.116 52.6651 6.48 53.1371 6.96C53.6091 7.432 53.9771 8.016 54.2411 8.712C54.5131 9.4 54.6491 10.188 54.6491 11.076C54.6491 11.524 54.6011 11.828 54.5051 11.988C54.4091 12.14 54.2251 12.216 53.9531 12.216H46.3331ZM65.8934 8.292C65.8054 8.404 65.7174 8.492 65.6294 8.556C65.5494 8.62 65.4294 8.652 65.2694 8.652C65.1174 8.652 64.9694 8.608 64.8254 8.52C64.6814 8.424 64.5094 8.32 64.3094 8.208C64.1094 8.088 63.8694 7.984 63.5894 7.896C63.3174 7.8 62.9774 7.752 62.5694 7.752C62.0494 7.752 61.5934 7.848 61.2014 8.04C60.8094 8.224 60.4814 8.492 60.2174 8.844C59.9614 9.196 59.7694 9.624 59.6414 10.128C59.5134 10.624 59.4494 11.188 59.4494 11.82C59.4494 12.476 59.5174 13.06 59.6534 13.572C59.7974 14.084 60.0014 14.516 60.2654 14.868C60.5294 15.212 60.8494 15.476 61.2254 15.66C61.6014 15.836 62.0254 15.924 62.4974 15.924C62.9694 15.924 63.3494 15.868 63.6374 15.756C63.9334 15.636 64.1814 15.508 64.3814 15.372C64.5814 15.228 64.7534 15.1 64.8974 14.988C65.0494 14.868 65.2174 14.808 65.4014 14.808C65.6414 14.808 65.8214 14.9 65.9414 15.084L66.7934 16.164C66.4654 16.548 66.1094 16.872 65.7254 17.136C65.3414 17.392 64.9414 17.6 64.5254 17.76C64.1174 17.912 63.6934 18.02 63.2534 18.084C62.8214 18.148 62.3894 18.18 61.9574 18.18C61.1974 18.18 60.4814 18.04 59.8094 17.76C59.1374 17.472 58.5494 17.056 58.0454 16.512C57.5414 15.968 57.1414 15.304 56.8454 14.52C56.5574 13.728 56.4134 12.828 56.4134 11.82C56.4134 10.916 56.5414 10.08 56.7974 9.312C57.0614 8.536 57.4454 7.868 57.9494 7.308C58.4534 6.74 59.0774 6.296 59.8214 5.976C60.5654 5.656 61.4214 5.496 62.3894 5.496C63.3094 5.496 64.1134 5.644 64.8014 5.94C65.4974 6.236 66.1214 6.66 66.6734 7.212L65.8934 8.292ZM71.8155 7.008C72.2955 6.56 72.8235 6.196 73.3995 5.916C73.9755 5.636 74.6515 5.496 75.4275 5.496C76.0995 5.496 76.6955 5.612 77.2155 5.844C77.7355 6.068 78.1675 6.388 78.5115 6.804C78.8635 7.212 79.1275 7.704 79.3035 8.28C79.4875 8.848 79.5795 9.476 79.5795 10.164V18H76.6155V10.164C76.6155 9.412 76.4435 8.832 76.0995 8.424C75.7555 8.008 75.2315 7.8 74.5275 7.8C74.0155 7.8 73.5355 7.916 73.0875 8.148C72.6395 8.38 72.2155 8.696 71.8155 9.096V18H68.8515V0.167999H71.8155V7.008Z" fill="#3C64B1"/>
</svg>
